<?xml version="1.0" encoding="UTF-8"?>
<svg width="1400" height="1000" xmlns="http://www.w3.org/2000/svg">
  <defs>
    <style>
      .title { font-family: Arial, sans-serif; font-size: 24px; font-weight: bold; fill: #1F2937; }
      .subtitle { font-family: Arial, sans-serif; font-size: 16px; font-weight: bold; fill: #374151; }
      .label { font-family: Arial, sans-serif; font-size: 12px; fill: #6B7280; }
      .endpoint { font-family: Arial, sans-serif; font-size: 11px; fill: #FFFFFF; }
      .method { font-family: Arial, sans-serif; font-size: 10px; fill: #FFFFFF; font-weight: bold; }
      .arrow { stroke: #3B82F6; stroke-width: 2; fill: none; marker-end: url(#arrowhead); }
      .get { stroke: #10B981; stroke-width: 3; fill: none; marker-end: url(#get-arrow); }
      .post { stroke: #3B82F6; stroke-width: 3; fill: none; marker-end: url(#post-arrow); }
      .put { stroke: #F59E0B; stroke-width: 3; fill: none; marker-end: url(#put-arrow); }
      .delete { stroke: #EF4444; stroke-width: 3; fill: none; marker-end: url(#delete-arrow); }
    </style>
    <marker id="arrowhead" markerWidth="10" markerHeight="7" refX="9" refY="3.5" orient="auto">
      <polygon points="0 0, 10 3.5, 0 7" fill="#3B82F6"/>
    </marker>
    <marker id="get-arrow" markerWidth="10" markerHeight="7" refX="9" refY="3.5" orient="auto">
      <polygon points="0 0, 10 3.5, 0 7" fill="#10B981"/>
    </marker>
    <marker id="post-arrow" markerWidth="10" markerHeight="7" refX="9" refY="3.5" orient="auto">
      <polygon points="0 0, 10 3.5, 0 7" fill="#3B82F6"/>
    </marker>
    <marker id="put-arrow" markerWidth="10" markerHeight="7" refX="9" refY="3.5" orient="auto">
      <polygon points="0 0, 10 3.5, 0 7" fill="#F59E0B"/>
    </marker>
    <marker id="delete-arrow" markerWidth="10" markerHeight="7" refX="9" refY="3.5" orient="auto">
      <polygon points="0 0, 10 3.5, 0 7" fill="#EF4444"/>
    </marker>
  </defs>
  
  <!-- Background -->
  <rect width="1400" height="1000" fill="#F9FAFB"/>
  
  <!-- Title -->
  <text x="700" y="40" text-anchor="middle" class="title">HR Intelligence Platform - API Endpoints Architecture</text>
  
  <!-- Client Layer -->
  <rect x="50" y="80" width="1300" height="120" fill="#DBEAFE" stroke="#3B82F6" stroke-width="2" rx="8"/>
  <text x="700" y="105" text-anchor="middle" class="subtitle">Client Applications</text>
  
  <!-- Web Dashboard -->
  <rect x="80" y="120" width="150" height="60" fill="#3B82F6" stroke="#1D4ED8" stroke-width="2" rx="6"/>
  <text x="155" y="150" text-anchor="middle" class="endpoint">Web Dashboard</text>
  <text x="155" y="165" text-anchor="middle" class="label">React.js</text>
  
  <!-- Mobile App -->
  <rect x="250" y="120" width="150" height="60" fill="#8B5CF6" stroke="#6D28D9" stroke-width="2" rx="6"/>
  <text x="325" y="150" text-anchor="middle" class="endpoint">Mobile App</text>
  <text x="325" y="165" text-anchor="middle" class="label">React Native</text>
  
  <!-- HRIS Integration -->
  <rect x="420" y="120" width="150" height="60" fill="#F59E0B" stroke="#D97706" stroke-width="2" rx="6"/>
  <text x="495" y="150" text-anchor="middle" class="endpoint">HRIS Integration</text>
  <text x="495" y="165" text-anchor="middle" class="label">BambooHR/Workday</text>
  
  <!-- Third-party Tools -->
  <rect x="590" y="120" width="150" height="60" fill="#EF4444" stroke="#DC2626" stroke-width="2" rx="6"/>
  <text x="665" y="150" text-anchor="middle" class="endpoint">Third-party Tools</text>
  <text x="665" y="165" text-anchor="middle" class="label">Slack/Teams</text>
  
  <!-- API Gateway -->
  <rect x="760" y="120" width="150" height="60" fill="#10B981" stroke="#059669" stroke-width="2" rx="6"/>
  <text x="835" y="150" text-anchor="middle" class="endpoint">API Gateway</text>
  <text x="835" y="165" text-anchor="middle" class="label">Node.js/Express</text>
  
  <!-- API Endpoints -->
  <rect x="50" y="240" width="1300" height="600" fill="#FEF3C7" stroke="#F59E0B" stroke-width="2" rx="8"/>
  <text x="700" y="265" text-anchor="middle" class="subtitle">API Endpoints & Services</text>
  
  <!-- Authentication Endpoints -->
  <rect x="80" y="280" width="300" height="200" fill="#DC2626" stroke="#B91C1C" stroke-width="2" rx="6"/>
  <text x="230" y="305" text-anchor="middle" class="subtitle" fill="#FFFFFF">Authentication</text>
  
  <rect x="100" y="320" width="120" height="40" fill="#10B981" stroke="#059669" stroke-width="1" rx="4"/>
  <text x="160" y="335" text-anchor="middle" class="method">POST</text>
  <text x="160" y="350" text-anchor="middle" class="endpoint">/auth/login</text>
  
  <rect x="100" y="370" width="120" height="40" fill="#3B82F6" stroke="#1D4ED8" stroke-width="1" rx="4"/>
  <text x="160" y="385" text-anchor="middle" class="method">POST</text>
  <text x="160" y="400" text-anchor="middle" class="endpoint">/auth/refresh</text>
  
  <rect x="100" y="420" width="120" height="40" fill="#EF4444" stroke="#DC2626" stroke-width="1" rx="4"/>
  <text x="160" y="435" text-anchor="middle" class="method">POST</text>
  <text x="160" y="450" text-anchor="middle" class="endpoint">/auth/logout</text>
  
  <rect x="240" y="320" width="120" height="40" fill="#10B981" stroke="#059669" stroke-width="1" rx="4"/>
  <text x="300" y="335" text-anchor="middle" class="method">GET</text>
  <text x="300" y="350" text-anchor="middle" class="endpoint">/auth/profile</text>
  
  <rect x="240" y="370" width="120" height="40" fill="#F59E0B" stroke="#D97706" stroke-width="1" rx="4"/>
  <text x="300" y="385" text-anchor="middle" class="method">PUT</text>
  <text x="300" y="400" text-anchor="middle" class="endpoint">/auth/profile</text>
  
  <!-- Employee Endpoints -->
  <rect x="400" y="280" width="300" height="200" fill="#7C3AED" stroke="#5B21B6" stroke-width="2" rx="6"/>
  <text x="550" y="305" text-anchor="middle" class="subtitle" fill="#FFFFFF">Employee Management</text>
  
  <rect x="420" y="320" width="120" height="40" fill="#10B981" stroke="#059669" stroke-width="1" rx="4"/>
  <text x="480" y="335" text-anchor="middle" class="method">GET</text>
  <text x="480" y="350" text-anchor="middle" class="endpoint">/employees</text>
  
  <rect x="420" y="370" width="120" height="40" fill="#10B981" stroke="#059669" stroke-width="1" rx="4"/>
  <text x="480" y="385" text-anchor="middle" class="method">GET</text>
  <text x="480" y="400" text-anchor="middle" class="endpoint">/employees/{id}</text>
  
  <rect x="420" y="420" width="120" height="40" fill="#3B82F6" stroke="#1D4ED8" stroke-width="1" rx="4"/>
  <text x="480" y="435" text-anchor="middle" class="method">POST</text>
  <text x="480" y="450" text-anchor="middle" class="endpoint">/employees</text>
  
  <rect x="560" y="320" width="120" height="40" fill="#F59E0B" stroke="#D97706" stroke-width="1" rx="4"/>
  <text x="620" y="335" text-anchor="middle" class="method">PUT</text>
  <text x="620" y="350" text-anchor="middle" class="endpoint">/employees/{id}</text>
  
  <rect x="560" y="370" width="120" height="40" fill="#EF4444" stroke="#DC2626" stroke-width="1" rx="4"/>
  <text x="620" y="385" text-anchor="middle" class="method">DELETE</text>
  <text x="620" y="400" text-anchor="middle" class="endpoint">/employees/{id}</text>
  
  <rect x="560" y="420" width="120" height="40" fill="#10B981" stroke="#059669" stroke-width="1" rx="4"/>
  <text x="620" y="435" text-anchor="middle" class="method">GET</text>
  <text x="620" y="450" text-anchor="middle" class="endpoint">/employees/search</text>
  
  <!-- Assessment Endpoints -->
  <rect x="720" y="280" width="300" height="200" fill="#059669" stroke="#047857" stroke-width="2" rx="6"/>
  <text x="870" y="305" text-anchor="middle" class="subtitle" fill="#FFFFFF">Assessment & Prediction</text>
  
  <rect x="740" y="320" width="120" height="40" fill="#3B82F6" stroke="#1D4ED8" stroke-width="1" rx="4"/>
  <text x="800" y="335" text-anchor="middle" class="method">POST</text>
  <text x="800" y="350" text-anchor="middle" class="endpoint">/assessments</text>
  
  <rect x="740" y="370" width="120" height="40" fill="#10B981" stroke="#059669" stroke-width="1" rx="4"/>
  <text x="800" y="385" text-anchor="middle" class="method">GET</text>
  <text x="800" y="400" text-anchor="middle" class="endpoint">/assessments/{id}</text>
  
  <rect x="740" y="420" width="120" height="40" fill="#10B981" stroke="#059669" stroke-width="1" rx="4"/>
  <text x="800" y="435" text-anchor="middle" class="method">GET</text>
  <text x="800" y="450" text-anchor="middle" class="endpoint">/predictions</text>
  
  <rect x="880" y="320" width="120" height="40" fill="#F59E0B" stroke="#D97706" stroke-width="1" rx="4"/>
  <text x="940" y="335" text-anchor="middle" class="method">PUT</text>
  <text x="940" y="350" text-anchor="middle" class="endpoint">/assessments/{id}</text>
  
  <rect x="880" y="370" width="120" height="40" fill="#EF4444" stroke="#DC2626" stroke-width="1" rx="4"/>
  <text x="940" y="385" text-anchor="middle" class="method">DELETE</text>
  <text x="940" y="400" text-anchor="middle" class="endpoint">/assessments/{id}</text>
  
  <rect x="880" y="420" width="120" height="40" fill="#10B981" stroke="#059669" stroke-width="1" rx="4"/>
  <text x="940" y="435" text-anchor="middle" class="method">GET</text>
  <text x="940" y="450" text-anchor="middle" class="endpoint">/predictions/history</text>
  
  <!-- Program Endpoints -->
  <rect x="1040" y="280" width="300" height="200" fill="#0891B2" stroke="#0E7490" stroke-width="2" rx="6"/>
  <text x="1190" y="305" text-anchor="middle" class="subtitle" fill="#FFFFFF">Program Management</text>
  
  <rect x="1060" y="320" width="120" height="40" fill="#10B981" stroke="#059669" stroke-width="1" rx="4"/>
  <text x="1120" y="335" text-anchor="middle" class="method">GET</text>
  <text x="1120" y="350" text-anchor="middle" class="endpoint">/programs</text>
  
  <rect x="1060" y="370" width="120" height="40" fill="#10B981" stroke="#059669" stroke-width="1" rx="4"/>
  <text x="1120" y="385" text-anchor="middle" class="method">GET</text>
  <text x="1120" y="400" text-anchor="middle" class="endpoint">/programs/{id}</text>
  
  <rect x="1060" y="420" width="120" height="40" fill="#3B82F6" stroke="#1D4ED8" stroke-width="1" rx="4"/>
  <text x="1120" y="435" text-anchor="middle" class="method">POST</text>
  <text x="1120" y="450" text-anchor="middle" class="endpoint">/programs</text>
  
  <rect x="1200" y="320" width="120" height="40" fill="#F59E0B" stroke="#D97706" stroke-width="1" rx="4"/>
  <text x="1260" y="335" text-anchor="middle" class="method">PUT</text>
  <text x="1260" y="350" text-anchor="middle" class="endpoint">/programs/{id}</text>
  
  <rect x="1200" y="370" width="120" height="40" fill="#EF4444" stroke="#DC2626" stroke-width="1" rx="4"/>
  <text x="1260" y="385" text-anchor="middle" class="method">DELETE</text>
  <text x="1260" y="400" text-anchor="middle" class="endpoint">/programs/{id}</text>
  
  <rect x="1200" y="420" width="120" height="40" fill="#3B82F6" stroke="#1D4ED8" stroke-width="1" rx="4"/>
  <text x="1260" y="435" text-anchor="middle" class="method">POST</text>
  <text x="1260" y="450" text-anchor="middle" class="endpoint">/enrollments</text>
  
  <!-- Analytics Endpoints -->
  <rect x="80" y="520" width="300" height="200" fill="#BE185D" stroke="#9D174D" stroke-width="2" rx="6"/>
  <text x="230" y="545" text-anchor="middle" class="subtitle" fill="#FFFFFF">Analytics & Reporting</text>
  
  <rect x="100" y="560" width="120" height="40" fill="#10B981" stroke="#059669" stroke-width="1" rx="4"/>
  <text x="160" y="575" text-anchor="middle" class="method">GET</text>
  <text x="160" y="590" text-anchor="middle" class="endpoint">/analytics/executive</text>
  
  <rect x="100" y="610" width="120" height="40" fill="#10B981" stroke="#059669" stroke-width="1" rx="4"/>
  <text x="160" y="625" text-anchor="middle" class="method">GET</text>
  <text x="160" y="640" text-anchor="middle" class="endpoint">/analytics/department</text>
  
  <rect x="100" y="660" width="120" height="40" fill="#10B981" stroke="#059669" stroke-width="1" rx="4"/>
  <text x="160" y="675" text-anchor="middle" class="method">GET</text>
  <text x="160" y="690" text-anchor="middle" class="endpoint">/analytics/trends</text>
  
  <rect x="240" y="560" width="120" height="40" fill="#3B82F6" stroke="#1D4ED8" stroke-width="1" rx="4"/>
  <text x="300" y="575" text-anchor="middle" class="method">POST</text>
  <text x="300" y="590" text-anchor="middle" class="endpoint">/reports/generate</text>
  
  <rect x="240" y="610" width="120" height="40" fill="#10B981" stroke="#059669" stroke-width="1" rx="4"/>
  <text x="300" y="625" text-anchor="middle" class="method">GET</text>
  <text x="300" y="640" text-anchor="middle" class="endpoint">/reports/{id}</text>
  
  <rect x="240" y="660" width="120" height="40" fill="#10B981" stroke="#059669" stroke-width="1" rx="4"/>
  <text x="300" y="675" text-anchor="middle" class="method">GET</text>
  <text x="300" y="690" text-anchor="middle" class="endpoint">/reports/history</text>
  
  <!-- Alert Endpoints -->
  <rect x="400" y="520" width="300" height="200" fill="#F59E0B" stroke="#D97706" stroke-width="2" rx="6"/>
  <text x="550" y="545" text-anchor="middle" class="subtitle" fill="#FFFFFF">Alert Management</text>
  
  <rect x="420" y="560" width="120" height="40" fill="#10B981" stroke="#059669" stroke-width="1" rx="4"/>
  <text x="480" y="575" text-anchor="middle" class="method">GET</text>
  <text x="480" y="590" text-anchor="middle" class="endpoint">/alerts</text>
  
  <rect x="420" y="610" width="120" height="40" fill="#10B981" stroke="#059669" stroke-width="1" rx="4"/>
  <text x="480" y="625" text-anchor="middle" class="method">GET</text>
  <text x="480" y="640" text-anchor="middle" class="endpoint">/alerts/{id}</text>
  
  <rect x="420" y="660" width="120" height="40" fill="#F59E0B" stroke="#D97706" stroke-width="1" rx="4"/>
  <text x="480" y="675" text-anchor="middle" class="method">PUT</text>
  <text x="480" y="690" text-anchor="middle" class="endpoint">/alerts/{id}</text>
  
  <rect x="560" y="560" width="120" height="40" fill="#3B82F6" stroke="#1D4ED8" stroke-width="1" rx="4"/>
  <text x="620" y="575" text-anchor="middle" class="method">POST</text>
  <text x="620" y="590" text-anchor="middle" class="endpoint">/alerts</text>
  
  <rect x="560" y="610" width="120" height="40" fill="#EF4444" stroke="#DC2626" stroke-width="1" rx="4"/>
  <text x="620" y="625" text-anchor="middle" class="method">DELETE</text>
  <text x="620" y="640" text-anchor="middle" class="endpoint">/alerts/{id}</text>
  
  <rect x="560" y="660" width="120" height="40" fill="#10B981" stroke="#059669" stroke-width="1" rx="4"/>
  <text x="620" y="675" text-anchor="middle" class="method">GET</text>
  <text x="620" y="690" text-anchor="middle" class="endpoint">/alerts/settings</text>
  
  <!-- Integration Endpoints -->
  <rect x="720" y="520" width="300" height="200" fill="#8B5CF6" stroke="#6D28D9" stroke-width="2" rx="6"/>
  <text x="870" y="545" text-anchor="middle" class="subtitle" fill="#FFFFFF">Integration & Sync</text>
  
  <rect x="740" y="560" width="120" height="40" fill="#10B981" stroke="#059669" stroke-width="1" rx="4"/>
  <text x="800" y="575" text-anchor="middle" class="method">GET</text>
  <text x="800" y="590" text-anchor="middle" class="endpoint">/integrations/status</text>
  
  <rect x="740" y="610" width="120" height="40" fill="#3B82F6" stroke="#1D4ED8" stroke-width="1" rx="4"/>
  <text x="800" y="625" text-anchor="middle" class="method">POST</text>
  <text x="800" y="640" text-anchor="middle" class="endpoint">/integrations/sync</text>
  
  <rect x="740" y="660" width="120" height="40" fill="#F59E0B" stroke="#D97706" stroke-width="1" rx="4"/>
  <text x="800" y="675" text-anchor="middle" class="method">PUT</text>
  <text x="800" y="690" text-anchor="middle" class="endpoint">/integrations/config</text>
  
  <rect x="880" y="560" width="120" height="40" fill="#10B981" stroke="#059669" stroke-width="1" rx="4"/>
  <text x="940" y="575" text-anchor="middle" class="method">GET</text>
  <text x="940" y="590" text-anchor="middle" class="endpoint">/webhooks</text>
  
  <rect x="880" y="610" width="120" height="40" fill="#3B82F6" stroke="#1D4ED8" stroke-width="1" rx="4"/>
  <text x="940" y="625" text-anchor="middle" class="method">POST</text>
  <text x="940" y="640" text-anchor="middle" class="endpoint">/webhooks</text>
  
  <rect x="880" y="660" width="120" height="40" fill="#EF4444" stroke="#DC2626" stroke-width="1" rx="4"/>
  <text x="940" y="675" text-anchor="middle" class="method">DELETE</text>
  <text x="940" y="690" text-anchor="middle" class="endpoint">/webhooks/{id}</text>
  
  <!-- System Endpoints -->
  <rect x="1040" y="520" width="300" height="200" fill="#6B7280" stroke="#4B5563" stroke-width="2" rx="6"/>
  <text x="1190" y="545" text-anchor="middle" class="subtitle" fill="#FFFFFF">System & Health</text>
  
  <rect x="1060" y="560" width="120" height="40" fill="#10B981" stroke="#059669" stroke-width="1" rx="4"/>
  <text x="1120" y="575" text-anchor="middle" class="method">GET</text>
  <text x="1120" y="590" text-anchor="middle" class="endpoint">/health</text>
  
  <rect x="1060" y="610" width="120" height="40" fill="#10B981" stroke="#059669" stroke-width="1" rx="4"/>
  <text x="1120" y="625" text-anchor="middle" class="method">GET</text>
  <text x="1120" y="640" text-anchor="middle" class="endpoint">/health/detailed</text>
  
  <rect x="1060" y="660" width="120" height="40" fill="#10B981" stroke="#059669" stroke-width="1" rx="4"/>
  <text x="1120" y="675" text-anchor="middle" class="method">GET</text>
  <text x="1120" y="690" text-anchor="middle" class="endpoint">/metrics</text>
  
  <rect x="1200" y="560" width="120" height="40" fill="#10B981" stroke="#059669" stroke-width="1" rx="4"/>
  <text x="1260" y="575" text-anchor="middle" class="method">GET</text>
  <text x="1260" y="590" text-anchor="middle" class="endpoint">/version</text>
  
  <rect x="1200" y="610" width="120" height="40" fill="#F59E0B" stroke="#D97706" stroke-width="1" rx="4"/>
  <text x="1260" y="625" text-anchor="middle" class="method">PUT</text>
  <text x="1260" y="640" text-anchor="middle" class="endpoint">/config</text>
  
  <rect x="1200" y="660" width="120" height="40" fill="#10B981" stroke="#059669" stroke-width="1" rx="4"/>
  <text x="1260" y="675" text-anchor="middle" class="method">GET</text>
  <text x="1260" y="690" text-anchor="middle" class="endpoint">/logs</text>
  
  <!-- Arrows from Clients to API Gateway -->
  <line x1="155" y1="180" x2="760" y2="180" class="post"/>
  <line x1="325" y1="180" x2="760" y2="180" class="post"/>
  <line x1="495" y1="180" x2="760" y2="180" class="post"/>
  <line x1="665" y1="180" x2="760" y2="180" class="post"/>
  
  <!-- Arrows from API Gateway to Services -->
  <line x1="835" y1="180" x2="230" y2="280" class="arrow"/>
  <line x1="835" y1="180" x2="550" y2="280" class="arrow"/>
  <line x1="835" y1="180" x2="870" y2="280" class="arrow"/>
  <line x1="835" y1="180" x2="1190" y2="280" class="arrow"/>
  <line x1="835" y1="180" x2="230" y2="520" class="arrow"/>
  <line x1="835" y1="180" x2="550" y2="520" class="arrow"/>
  <line x1="835" y1="180" x2="870" y2="520" class="arrow"/>
  <line x1="835" y1="180" x2="1190" y2="520" class="arrow"/>
  
  <!-- Legend -->
  <rect x="50" y="960" width="1300" height="30" fill="#F3F4F6" stroke="#D1D5DB" stroke-width="1" rx="4"/>
  <text x="700" y="980" text-anchor="middle" class="subtitle">HTTP Method Legend</text>
  
  <line x1="80" y1="970" x2="120" y2="970" class="get"/>
  <text x="130" y="975" class="label">GET - Retrieve Data</text>
  
  <line x1="300" y1="970" x2="340" y2="970" class="post"/>
  <text x="350" y="975" class="label">POST - Create Data</text>
  
  <line x1="500" y1="970" x2="540" y2="970" class="put"/>
  <text x="550" y="975" class="label">PUT - Update Data</text>
  
  <line x1="700" y1="970" x2="740" y2="970" class="delete"/>
  <text x="750" y="975" class="label">DELETE - Remove Data</text>
  
  <rect x="900" y="965" width="20" height="10" fill="#3B82F6"/>
  <text x="930" y="975" class="label">Client Applications</text>
  
  <rect x="1050" y="965" width="20" height="10" fill="#10B981"/>
  <text x="1080" y="975" class="label">API Services</text>
</svg>