<?xml version="1.0" encoding="UTF-8"?>
<svg width="1200" height="800" xmlns="http://www.w3.org/2000/svg">
  <defs>
    <style>
      .title { font-family: Arial, sans-serif; font-size: 24px; font-weight: bold; fill: #1F2937; }
      .subtitle { font-family: Arial, sans-serif; font-size: 16px; font-weight: bold; fill: #374151; }
      .label { font-family: Arial, sans-serif; font-size: 12px; fill: #6B7280; }
      .component { font-family: Arial, sans-serif; font-size: 11px; fill: #FFFFFF; }
      .data-label { font-family: Arial, sans-serif; font-size: 10px; fill: #3B82F6; }
      .arrow { stroke: #3B82F6; stroke-width: 2; fill: none; marker-end: url(#arrowhead); }
      .vision-flow { stroke: #8B5CF6; stroke-width: 3; fill: none; marker-end: url(#vision-arrow); }
      .game-flow { stroke: #10B981; stroke-width: 3; fill: none; marker-end: url(#game-arrow); }
      .bls-flow { stroke: #F59E0B; stroke-width: 3; fill: none; marker-end: url(#bls-arrow); }
      .prediction-flow { stroke: #EF4444; stroke-width: 3; fill: none; marker-end: url(#prediction-arrow); }
    </style>
    <marker id="arrowhead" markerWidth="10" markerHeight="7" refX="9" refY="3.5" orient="auto">
      <polygon points="0 0, 10 3.5, 0 7" fill="#3B82F6"/>
    </marker>
    <marker id="vision-arrow" markerWidth="10" markerHeight="7" refX="9" refY="3.5" orient="auto">
      <polygon points="0 0, 10 3.5, 0 7" fill="#8B5CF6"/>
    </marker>
    <marker id="game-arrow" markerWidth="10" markerHeight="7" refX="9" refY="3.5" orient="auto">
      <polygon points="0 0, 10 3.5, 0 7" fill="#10B981"/>
    </marker>
    <marker id="bls-arrow" markerWidth="10" markerHeight="7" refX="9" refY="3.5" orient="auto">
      <polygon points="0 0, 10 3.5, 0 7" fill="#F59E0B"/>
    </marker>
    <marker id="prediction-arrow" markerWidth="10" markerHeight="7" refX="9" refY="3.5" orient="auto">
      <polygon points="0 0, 10 3.5, 0 7" fill="#EF4444"/>
    </marker>
  </defs>
  
  <!-- Background -->
  <rect width="1200" height="800" fill="#F9FAFB"/>
  
  <!-- Title -->
  <text x="600" y="40" text-anchor="middle" class="title">HR Intelligence Platform - Data Flow Diagram</text>
  
  <!-- Input Data Sources -->
  <rect x="50" y="80" width="1100" height="150" fill="#DBEAFE" stroke="#3B82F6" stroke-width="2" rx="8"/>
  <text x="600" y="105" text-anchor="middle" class="subtitle">Input Data Sources</text>
  
  <!-- Vision Board -->
  <rect x="80" y="120" width="200" height="100" fill="#8B5CF6" stroke="#6D28D9" stroke-width="2" rx="6"/>
  <text x="180" y="145" text-anchor="middle" class="component">Vision Board</text>
  <text x="180" y="160" text-anchor="middle" class="component">Analysis</text>
  <text x="180" y="175" text-anchor="middle" class="label">Color Psychology</text>
  <text x="180" y="190" text-anchor="middle" class="label">Content Themes</text>
  <text x="180" y="205" text-anchor="middle" class="label">Spatial Patterns</text>
  
  <!-- Mobile Games -->
  <rect x="300" y="120" width="200" height="100" fill="#10B981" stroke="#059669" stroke-width="2" rx="6"/>
  <text x="400" y="145" text-anchor="middle" class="component">Mobile Games</text>
  <text x="400" y="160" text-anchor="middle" class="component">Assessment</text>
  <text x="400" y="175" text-anchor="middle" class="label">Leadership Game</text>
  <text x="400" y="190" text-anchor="middle" class="label">Communication Game</text>
  <text x="400" y="205" text-anchor="middle" class="label">Problem Solving Game</text>
  
  <!-- BLS Data -->
  <rect x="520" y="120" width="200" height="100" fill="#F59E0B" stroke="#D97706" stroke-width="2" rx="6"/>
  <text x="620" y="145" text-anchor="middle" class="component">BLS Occupational</text>
  <text x="620" y="160" text-anchor="middle" class="component">Data</text>
  <text x="620" y="175" text-anchor="middle" class="label">Job Requirements</text>
  <text x="620" y="190" text-anchor="middle" class="label">Skill Standards</text>
  <text x="620" y="205" text-anchor="middle" class="label">Market Data</text>
  
  <!-- HRIS Integration -->
  <rect x="740" y="120" width="200" height="100" fill="#EF4444" stroke="#DC2626" stroke-width="2" rx="6"/>
  <text x="840" y="145" text-anchor="middle" class="component">HRIS Integration</text>
  <text x="840" y="160" text-anchor="middle" class="component">(BambooHR/Workday)</text>
  <text x="840" y="175" text-anchor="middle" class="label">Employee Records</text>
  <text x="840" y="190" text-anchor="middle" class="label">Performance Data</text>
  <text x="840" y="205" text-anchor="middle" class="label">Organizational Structure</text>
  
  <!-- Processing Layer -->
  <rect x="50" y="270" width="1100" height="200" fill="#FEF3C7" stroke="#F59E0B" stroke-width="2" rx="8"/>
  <text x="600" y="295" text-anchor="middle" class="subtitle">Processing Layer</text>
  
  <!-- Vision Board Analyzer -->
  <rect x="80" y="310" width="180" height="140" fill="#8B5CF6" stroke="#6D28D9" stroke-width="2" rx="6"/>
  <text x="170" y="335" text-anchor="middle" class="component">Vision Board</text>
  <text x="170" y="350" text-anchor="middle" class="component">Analyzer</text>
  <text x="170" y="365" text-anchor="middle" class="label">• Color Psychology</text>
  <text x="170" y="380" text-anchor="middle" class="label">• Content Themes</text>
  <text x="170" y="395" text-anchor="middle" class="label">• Spatial Patterns</text>
  <text x="170" y="410" text-anchor="middle" class="label">• Personality Traits</text>
  <text x="170" y="425" text-anchor="middle" class="label">• Career Aspirations</text>
  <text x="170" y="440" text-anchor="middle" class="label">• Risk Indicators</text>
  
  <!-- Game Processor -->
  <rect x="280" y="310" width="180" height="140" fill="#10B981" stroke="#059669" stroke-width="2" rx="6"/>
  <text x="370" y="335" text-anchor="middle" class="component">Game Processor</text>
  <text x="370" y="350" text-anchor="middle" class="label">• Skill Assessment</text>
  <text x="370" y="365" text-anchor="middle" class="label">• Performance Metrics</text>
  <text x="370" y="380" text-anchor="middle" class="label">• Decision Patterns</text>
  <text x="370" y="395" text-anchor="middle" class="label">• Learning Velocity</text>
  <text x="370" y="410" text-anchor="middle" class="label">• Engagement Rate</text>
  <text x="370" y="425" text-anchor="middle" class="label">• Completion Time</text>
  
  <!-- BLS Matcher -->
  <rect x="480" y="310" width="180" height="140" fill="#F59E0B" stroke="#D97706" stroke-width="2" rx="6"/>
  <text x="570" y="335" text-anchor="middle" class="component">BLS Job Matcher</text>
  <text x="570" y="350" text-anchor="middle" class="label">• Skill Requirements</text>
  <text x="570" y="365" text-anchor="middle" class="label">• Role Alignment</text>
  <text x="570" y="380" text-anchor="middle" class="label">• Market Standards</text>
  <text x="570" y="395" text-anchor="middle" class="label">• Career Pathways</text>
  <text x="570" y="410" text-anchor="middle" class="label">• Salary Benchmarks</text>
  <text x="570" y="425" text-anchor="middle" class="label">• Growth Projections</text>
  
  <!-- ML Prediction Engine -->
  <rect x="680" y="310" width="180" height="140" fill="#EF4444" stroke="#DC2626" stroke-width="2" rx="6"/>
  <text x="770" y="335" text-anchor="middle" class="component">ML Prediction</text>
  <text x="770" y="350" text-anchor="middle" class="component">Engine</text>
  <text x="770" y="365" text-anchor="middle" class="label">• Readiness Score</text>
  <text x="770" y="380" text-anchor="middle" class="label">• Flight Risk</text>
  <text x="770" y="395" text-anchor="middle" class="label">• Training Completion</text>
  <text x="770" y="410" text-anchor="middle" class="label">• Investment ROI</text>
  <text x="770" y="425" text-anchor="middle" class="label">• Success Probability</text>
  
  <!-- Data Integration -->
  <rect x="880" y="310" width="180" height="140" fill="#7C3AED" stroke="#5B21B6" stroke-width="2" rx="6"/>
  <text x="970" y="335" text-anchor="middle" class="component">Data Integration</text>
  <text x="970" y="350" text-anchor="middle" class="component">Service</text>
  <text x="970" y="365" text-anchor="middle" class="label">• HRIS Sync</text>
  <text x="970" y="380" text-anchor="middle" class="label">• Real-time Updates</text>
  <text x="970" y="395" text-anchor="middle" class="label">• Data Validation</text>
  <text x="970" y="410" text-anchor="middle" class="label">• Quality Checks</text>
  <text x="970" y="425" text-anchor="middle" class="label">• Conflict Resolution</text>
  
  <!-- Output Layer -->
  <rect x="50" y="510" width="1100" height="200" fill="#D1FAE5" stroke="#10B981" stroke-width="2" rx="8"/>
  <text x="600" y="535" text-anchor="middle" class="subtitle">Output & Insights</text>
  
  <!-- Readiness Score -->
  <rect x="80" y="550" width="200" height="120" fill="#10B981" stroke="#059669" stroke-width="2" rx="6"/>
  <text x="180" y="575" text-anchor="middle" class="component">Readiness Score</text>
  <text x="180" y="590" text-anchor="middle" class="label">• 0-100 Scale</text>
  <text x="180" y="605" text-anchor="middle" class="label">• Component Breakdown</text>
  <text x="180" y="620" text-anchor="middle" class="label">• Confidence Interval</text>
  <text x="180" y="635" text-anchor="middle" class="label">• Trend Analysis</text>
  <text x="180" y="650" text-anchor="middle" class="label">• Historical Comparison</text>
  
  <!-- Flight Risk Prediction -->
  <rect x="300" y="550" width="200" height="120" fill="#EF4444" stroke="#DC2626" stroke-width="2" rx="6"/>
  <text x="400" y="575" text-anchor="middle" class="component">Flight Risk</text>
  <text x="400" y="590" text-anchor="middle" class="component">Prediction</text>
  <text x="400" y="605" text-anchor="middle" class="label">• Risk Percentage</text>
  <text x="400" y="620" text-anchor="middle" class="label">• Contributing Factors</text>
  <text x="400" y="635" text-anchor="middle" class="label">• Intervention Recommendations</text>
  <text x="400" y="650" text-anchor="middle" class="label">• Timeline Estimates</text>
  
  <!-- Program Recommendations -->
  <rect x="520" y="550" width="200" height="120" fill="#3B82F6" stroke="#1D4ED8" stroke-width="2" rx="6"/>
  <text x="620" y="575" text-anchor="middle" class="component">Program</text>
  <text x="620" y="590" text-anchor="middle" class="component">Recommendations</text>
  <text x="620" y="605" text-anchor="middle" class="label">• Career Pathways</text>
  <text x="620" y="620" text-anchor="middle" class="label">• ROI Projections</text>
  <text x="620" y="635" text-anchor="middle" class="label">• Success Probability</text>
  <text x="620" y="650" text-anchor="middle" class="label">• Timeline Estimates</text>
  
  <!-- Analytics Dashboard -->
  <rect x="740" y="550" width="200" height="120" fill="#8B5CF6" stroke="#6D28D9" stroke-width="2" rx="6"/>
  <text x="840" y="575" text-anchor="middle" class="component">Analytics</text>
  <text x="840" y="590" text-anchor="middle" class="component">Dashboard</text>
  <text x="840" y="605" text-anchor="middle" class="label">• KPI Tracking</text>
  <text x="840" y="620" text-anchor="middle" class="label">• Trend Analysis</text>
  <text x="840" y="635" text-anchor="middle" class="label">• Performance Metrics</text>
  <text x="840" y="650" text-anchor="middle" class="label">• Executive Reports</text>
  
  <!-- Actionable Insights -->
  <rect x="960" y="550" width="200" height="120" fill="#F59E0B" stroke="#D97706" stroke-width="2" rx="6"/>
  <text x="1060" y="575" text-anchor="middle" class="component">Actionable</text>
  <text x="1060" y="590" text-anchor="middle" class="component">Insights</text>
  <text x="1060" y="605" text-anchor="middle" class="label">• Specific Actions</text>
  <text x="1060" y="620" text-anchor="middle" class="label">• Priority Levels</text>
  <text x="1060" y="635" text-anchor="middle" class="label">• Timeline Guidance</text>
  <text x="1060" y="650" text-anchor="middle" class="label">• Resource Allocation</text>
  
  <!-- Data Flow Arrows -->
  <!-- Vision Board Flow -->
  <line x1="180" y1="220" x2="170" y2="310" class="vision-flow"/>
  <text x="160" y="270" text-anchor="middle" class="data-label">Vision Data</text>
  
  <!-- Game Flow -->
  <line x1="400" y1="220" x2="370" y2="310" class="game-flow"/>
  <text x="370" y="270" text-anchor="middle" class="data-label">Game Results</text>
  
  <!-- BLS Flow -->
  <line x1="620" y1="220" x2="570" y2="310" class="bls-flow"/>
  <text x="580" y="270" text-anchor="middle" class="data-label">Job Requirements</text>
  
  <!-- HRIS Flow -->
  <line x1="840" y1="220" x2="970" y2="310" class="arrow"/>
  <text x="900" y="270" text-anchor="middle" class="data-label">Employee Data</text>
  
  <!-- Processing to Output -->
  <line x1="170" y1="450" x2="180" y2="550" class="prediction-flow"/>
  <line x1="370" y1="450" x2="400" y2="550" class="prediction-flow"/>
  <line x1="570" y1="450" x2="620" y2="550" class="prediction-flow"/>
  <line x1="770" y1="450" x2="840" y2="550" class="prediction-flow"/>
  <line x1="970" y1="450" x2="1060" y2="550" class="prediction-flow"/>
  
  <!-- Processing Connections -->
  <line x1="260" y1="380" x2="280" y2="380" class="arrow"/>
  <line x1="460" y1="380" x2="480" y2="380" class="arrow"/>
  <line x1="660" y1="380" x2="680" y2="380" class="arrow"/>
  <line x1="860" y1="380" x2="880" y2="380" class="arrow"/>
  
  <!-- Legend -->
  <rect x="50" y="750" width="1100" height="40" fill="#F3F4F6" stroke="#D1D5DB" stroke-width="1" rx="4"/>
  <text x="600" y="770" text-anchor="middle" class="subtitle">Data Flow Legend</text>
  
  <line x1="80" y1="760" x2="120" y2="760" class="vision-flow"/>
  <text x="130" y="765" class="label">Vision Board Data</text>
  
  <line x1="300" y1="760" x2="340" y2="760" class="game-flow"/>
  <text x="350" y="765" class="label">Game Assessment Data</text>
  
  <line x1="500" y1="760" x2="540" y2="760" class="bls-flow"/>
  <text x="550" y="765" class="label">BLS Job Data</text>
  
  <line x1="700" y1="760" x2="740" y2="760" class="prediction-flow"/>
  <text x="750" y="765" class="label">Prediction Results</text>
  
  <line x1="900" y1="760" x2="940" y2="760" class="arrow"/>
  <text x="950" y="765" class="label">General Data Flow</text>
</svg>